PathFileType	4	(X/Y/Z)	C:/Users/opensim2020/Desktop/walking_exp_matlab/subject03_walking14_straight_01.trc																																																																																																																																											
DataRate	CameraRate	NumFrames	NumMarkers	Units	OrigDataRate	OrigDataStartFrame	OrigNumFrames																																																																																																																																							
100	100	7	47	mm	100	552	205																																																																																																																																							
Frame#	Time	LFHD			RFHD			LBHD			RBHD			C7			T10			CLAV			STRN			RBAK			LSHO			LUPA			LELB			LFRM			LWRA			LWRB			LFIN			RSHO			RUPA			RELB			RFRM			RWRA			RWRB			RFIN			LASI			RASI			LPSI			RPSI			LTHI			LKNE			LTIB			LANK			LHEE			LTOE			RTHI			RKNE			RTIB			RANK			RHEE			RTOE			*39			*40			*41			*42			*43			*44			*45			*46		
		X1	Y1	Z1	X2	Y2	Z2	X3	Y3	Z3	X4	Y4	Z4	X5	Y5	Z5	X6	Y6	Z6	X7	Y7	Z7	X8	Y8	Z8	X9	Y9	Z9	X10	Y10	Z10	X11	Y11	Z11	X12	Y12	Z12	X13	Y13	Z13	X14	Y14	Z14	X15	Y15	Z15	X16	Y16	Z16	X17	Y17	Z17	X18	Y18	Z18	X19	Y19	Z19	X20	Y20	Z20	X21	Y21	Z21	X22	Y22	Z22	X23	Y23	Z23	X24	Y24	Z24	X25	Y25	Z25	X26	Y26	Z26	X27	Y27	Z27	X28	Y28	Z28	X29	Y29	Z29	X30	Y30	Z30	X31	Y31	Z31	X32	Y32	Z32	X33	Y33	Z33	X34	Y34	Z34	X35	Y35	Z35	X36	Y36	Z36	X37	Y37	Z37	X38	Y38	Z38	X39	Y39	Z39	X40	Y40	Z40	X41	Y41	Z41	X42	Y42	Z42	X43	Y43	Z43	X44	Y44	Z44	X45	Y45	Z45	X46	Y46	Z46	X47	Y47	Z47
																																																																																																																																														
77	0.76	-417.35718	1637.09375	1370.6488	-431.34143	1635.12207	1502.5282	-541.51239	1585.09253	1359.41333	-551.22064	1583.01294	1489.93872	-570.00922	1422.59253	1407.72876	-598.95947	1112.41052	1422.32361	-448.0968	1352.29565	1418.24829	-397.25854	1186.89844	1418.47437	-622.08667	1247.87036	1504.81909	-484.51358	1385.48328	1260.07141	-468.53815	1191.73682	1185.36243	-444.95609	1071.12756	1170.61511	-408.62564	945.57288	1167.61438	-387.67084	826.41113	1191.65112	-400.82028	835.67712	1137.41113	-377.27808	755.66681	1140.03064	-505.78552	1375.89514	1573.9845	-499.33871	1156.91028	1653.5304	-477.5311	1046.3291	1668.7749	-447.72842	912.3609	1673.0061	-406.77048	821.0163	1639.64087	-439.32776	812.07861	1682.29041	-408.27618	743.66711	1671.72607	-439.1944	951.33508	1308.26099	-439.42911	946.5708	1544.21362	-601.38934	975.49066	1359.55603	-597.77399	976.61151	1507.98254	-491.44897	649.14484	1263.50793	-480.17499	474.32632	1304.91357	-536.63593	282.43021	1296.78467	-560.50989	71.61499	1334.63745	-604.25543	37.15701	1369.06177	-411.06622	36.9634	1363.51257	-443.81226	648.69409	1591.52502	-382.09811	479.6322	1570.61682	-504.81854	334.32242	1561.93933	-643.3775	173.2028	1509.09045	-694.83582	171.40039	1452.85889	-555.448	62.97729	1498.75537	-510.50989	1692.94885	1417.76245	NaN	NaN	NaN	NaN	NaN	NaN	NaN	NaN	NaN	NaN	NaN	NaN	NaN	NaN	NaN	NaN	NaN	NaN	NaN	NaN	NaN
78	0.77	-405.20508	1637.04504	1371.11377	-420.31345	1634.93005	1503.44788	-529.57422	1585.45679	1359.42212	-539.62366	1583.06982	1489.92053	-558.15607	1422.73425	1407.54187	-587.44708	1112.56262	1421.16724	-436.3909	1352.4043	1418.47107	-385.62936	1186.93372	1418.60046	-610.65289	1247.93457	1504.01746	-472.30579	1385.74622	1260.35498	-453.81314	1192.66296	1185.11975	-427.51181	1072.69897	1170.30188	-386.89587	948.35553	1168.12158	-361.78369	830.22076	1193.104	-375.47211	838.55444	1138.95117	-348.63889	759.79468	1141.94629	-494.79187	1375.79199	1573.92798	-490.74295	1156.6438	1653.19836	-470.10052	1045.79321	1668.54187	-442.45135	911.33606	1672.69409	-402.42905	819.39941	1639.56445	-435.56445	810.97418	1681.95081	-405.53479	741.77472	1671.62683	-427.97983	950.93951	1307.29126	-427.98605	947.11865	1543.35791	-589.92426	975.54108	1358.91699	-586.3587	976.95935	1507.20251	-484.42374	648.6499	1263.62939	-476.92297	473.93613	1305.04395	-534.99274	282.56564	1297.05444	-560.82471	72.10512	1334.56641	-604.1618	37.19909	1369.20972	-410.97086	36.79597	1363.59253	-427.39545	650.10321	1590.76331	-363.23575	482.37881	1569.40613	-479.41306	331.21661	1560.56396	-609.80389	163.27429	1507.07324	-661.24304	158.51337	1450.88965	-515.1806	58.97681	1496.41199	-498.52472	1692.97668	1418.05481	NaN	NaN	NaN	NaN	NaN	NaN	NaN	NaN	NaN	NaN	NaN	NaN	NaN	NaN	NaN	NaN	NaN	NaN	NaN	NaN	NaN
79	0.78	-393.10352	1636.72388	1371.70569	-408.63083	1634.47705	1503.8667	-517.48785	1585.38623	1359.49023	-527.97894	1582.85669	1489.92017	-546.32623	1422.55591	1407.43237	-575.86145	1112.41394	1419.98584	-424.6792	1352.1156	1418.76868	-374.13116	1186.58411	1418.57642	-599.26056	1247.68506	1503.16614	-459.87933	1385.8064	1260.63806	-439.18311	1193.41772	1184.95471	-409.83688	1074.02917	1170.16614	-365.40701	951.20264	1168.70618	-336.35419	833.93671	1194.21851	-350.26163	841.54724	1140.58093	-320.2081	764.08032	1144.28552	-483.69098	1375.3783	1573.9563	-482.02155	1156.09302	1652.86072	-462.92056	1044.91016	1668.17847	-437.03979	910.10657	1672.42175	-397.92828	817.5683	1639.6748	-431.75439	809.62952	1681.8291	-402.75992	740.1828	1671.73962	-416.74161	950.28833	1306.4198	-416.45032	947.28473	1542.55371	-578.50726	975.39667	1358.38879	-575.02136	976.93091	1506.47168	-477.71158	648.26666	1263.64294	-473.88065	473.1319	1305.07019	-533.47565	282.61923	1297.31067	-560.32428	72.11576	1334.92932	-603.86041	37.41784	1369.2467	-410.64459	36.98926	1363.31519	-412.97021	651.77637	1590.8291	-345.01178	484.83835	1568.38696	-454.08588	327.76361	1559.3623	-575.35553	153.03748	1505.36536	-626.37915	145.29858	1449.01184	-474.56561	55.0761	1494.78967	-486.47354	1692.95349	1418.39099	NaN	NaN	NaN	NaN	NaN	NaN	NaN	NaN	NaN	NaN	NaN	NaN	NaN	NaN	NaN	NaN	NaN	NaN	NaN	NaN	NaN
80	0.79	-380.86646	1636.32361	1372.27136	-396.98492	1633.72742	1504.3645	-505.34943	1584.99841	1359.59631	-516.23328	1582.29846	1490.03125	-534.34619	1422.08789	1407.34412	-564.39972	1112.06714	1418.93518	-412.88397	1351.53992	1419.04761	-362.40161	1186.02185	1418.73108	-587.76691	1247.13855	1502.29114	-447.37674	1385.63708	1260.98438	-424.34387	1193.91772	1184.84583	-392.83438	1075.33374	1169.81726	-344.03696	954.07526	1169.33008	-310.60178	838.2912	1195.9895	-325.12009	844.67621	1142.38245	-292.08752	768.40845	1146.92554	-472.41678	1374.64941	1574.08838	-473.28787	1155.17615	1652.50476	-455.42981	1043.79504	1668.00623	-431.51685	908.61798	1672.33228	-393.4707	815.51099	1639.9176	-427.86548	807.966	1681.573	-399.77551	737.94312	1671.74548	-405.66934	949.39685	1305.63562	-404.89578	947.02356	1541.80127	-567.06842	974.867	1357.87012	-563.61255	976.44714	1505.76416	-470.64209	647.61212	1263.80115	-470.21054	472.45276	1305.03271	-531.67432	282.74207	1297.59473	-560.3717	72.55966	1335.23816	-603.65619	37.84298	1369.72949	-410.50348	36.88321	1363.34229	-397.91687	652.89819	1590.48218	-327.40497	486.90448	1567.35632	-428.83023	324.07672	1558.3031	-540.0777	142.68153	1504.00537	-590.48395	132.04288	1447.54395	-433.40771	51.48026	1493.92139	-474.34445	1691.83875	1418.72791	NaN	NaN	NaN	NaN	NaN	NaN	NaN	NaN	NaN	NaN	NaN	NaN	NaN	NaN	NaN	NaN	NaN	NaN	NaN	NaN	NaN
81	0.8	-368.74896	1635.51135	1372.83447	-385.19876	1632.81213	1504.86914	-493.23047	1584.34143	1359.76404	-504.49606	1581.5155	1490.13647	-522.51337	1421.48816	1407.4928	-552.67389	1111.27661	1417.87146	-400.93036	1350.76489	1419.44995	-350.72369	1185.09668	1418.76135	-576.10889	1246.28198	1501.33569	-434.90558	1385.1283	1261.31531	-409.30508	1194.30457	1184.80078	-375.70593	1076.38623	1169.54358	-322.89438	956.84558	1170.01123	-285.0163	842.76569	1197.80469	-300.18936	847.85974	1144.32202	-264.29556	772.93201	1149.81628	-461.07721	1373.54968	1574.24597	-464.09747	1154.00684	1652.31897	-447.93256	1042.4646	1667.87512	-425.83383	906.87708	1672.32764	-388.73819	813.24731	1640.20605	-423.67902	806.13953	1681.48267	-396.66766	735.72034	1671.90112	-394.10452	948.21942	1305.01526	-393.26453	946.51208	1540.91125	-555.58142	974.14026	1357.40088	-552.33197	975.65326	1505.21167	-463.37054	646.93591	1264.01563	-466.51398	471.7471	1305.15271	-529.60345	282.81342	1297.88794	-559.97913	72.81795	1335.75928	-603.6319	38.24574	1370.16138	-410.25418	36.78692	1363.33459	-383.20938	653.68878	1590.30627	-310.38266	488.56979	1566.21704	-403.90903	320.24905	1557.46606	-504.09286	132.48549	1503.0304	-553.17889	118.50239	1446.19788	-391.80069	48.57602	1493.93616	-462.34927	1691.49561	1419.11084	NaN	NaN	NaN	NaN	NaN	NaN	NaN	NaN	NaN	NaN	NaN	NaN	NaN	NaN	NaN	NaN	NaN	NaN	NaN	NaN	NaN
82	0.81	-356.59421	1634.44214	1373.35718	-373.39819	1631.69397	1505.36658	-480.95966	1583.31909	1359.93457	-492.63257	1580.43445	1490.28235	-510.34653	1420.49841	1407.56628	-541.07294	1110.31628	1416.99377	-389.07425	1349.63135	1419.74646	-338.99539	1183.87476	1418.80164	-564.72498	1245.23999	1500.57715	-422.37531	1384.4248	1261.72913	-394.48935	1194.42615	1184.81177	-358.6525	1077.19324	1169.43274	-302.00797	959.57941	1170.73718	-259.67554	847.56775	1199.89038	-275.38983	851.09253	1146.48376	-236.82008	777.50146	1153.01709	-449.60068	1372.12463	1574.43494	-454.85574	1152.50964	1652.12451	-439.73553	1040.77966	1667.71692	-419.87988	904.8797	1672.35876	-383.95465	810.69269	1640.46912	-419.23114	804.12323	1681.62402	-393.40704	733.10913	1671.95251	-382.8801	946.80219	1304.25122	-381.647	945.74194	1540.22375	-544.3736	973.08771	1357.05444	-540.90332	974.48956	1504.66895	-456.01144	646.11792	1264.11609	-462.06799	470.7157	1305.25208	-527.08032	282.71881	1298.28333	-559.48328	72.93021	1336.29041	-603.9422	38.83593	1370.75488	-410.12189	36.3692	1363.69373	-368.88385	653.96503	1590.17969	-294.10596	489.80112	1565.12732	-379.11618	316.34521	1556.86157	-467.31934	122.53196	1502.47327	-515.37946	105.1799	1445.43506	-349.93506	46.20043	1494.67334	-450.32474	1690.26685	1419.47498	NaN	NaN	NaN	NaN	NaN	NaN	NaN	NaN	NaN	NaN	NaN	NaN	NaN	NaN	NaN	NaN	NaN	NaN	NaN	NaN	NaN
83	0.82	-344.34506	1633.2063	1373.90698	-361.38168	1630.51147	1506.00562	-468.70987	1582.04724	1360.1936	-480.68491	1579.14136	1490.48926	-498.27261	1419.3634	1407.81824	-529.26526	1109.10596	1416.2699	-376.9313	1348.31592	1420.12488	-327.18872	1182.44861	1418.82178	-552.92822	1243.81812	1499.72949	-409.80557	1383.50928	1262.16663	-379.36707	1194.41431	1184.84802	-341.66785	1077.9696	1169.45813	-281.28525	962.26013	1171.63611	-234.73982	852.37939	1202.06055	-250.92464	854.44922	1148.828	-209.76511	782.27588	1156.42627	-438.021	1370.40906	1574.70532	-445.57693	1150.73096	1651.91736	-431.77863	1038.78845	1667.63196	-413.78387	902.67291	1672.42725	-378.99289	807.88934	1640.77344	-414.6203	801.86121	1681.74622	-390.00308	730.4621	1672.07788	-371.4505	945.21539	1303.59106	-369.96552	944.69366	1539.59619	-532.85468	971.66516	1356.65271	-529.42969	973.11688	1504.27979	-448.04706	645.09064	1264.4917	-457.32755	469.80722	1305.49866	-524.40417	282.67786	1298.67712	-559.38068	73.31725	1336.69214	-603.8869	39.28969	1371.2749	-409.95605	36.41997	1363.57483	-354.54568	654.08722	1590.1676	-278.39105	490.5257	1564.02258	-354.40897	312.41635	1556.54785	-429.77448	113.06187	1502.52283	-476.73068	92.68578	1445.44922	-307.58951	44.61879	1495.97363	-438.23239	1688.95935	1419.7981	NaN	NaN	NaN	NaN	NaN	NaN	NaN	NaN	NaN	NaN	NaN	NaN	NaN	NaN	NaN	NaN	NaN	NaN	NaN	NaN	NaN
